<svg xmlns="http://www.w3.org/2000/svg" viewBox="0 0 212 65.4">
  <g fill="#00549D">
    <path d="M38.5 36.4l-.4.8c-.3.4-.8 1.6-1.8 1.4-.7-.1-.9-.7-.9-1.1-1.6-7.8-8.5-13.7-16.8-13.7-4 0-7.6 1.4-10.5 3.6l.1-.1h-6L4.7 31c0 .1-.1.1-.1.2H0l2.6 3.5c-.8 2-1.2 4.1-1.2 6.3 0 9.1 7.1 16.6 16.1 17.1l-3 3.1-6 1.2V64.1h12.8V62.4l-3.7-1.1 3.3-3.3c3.9-.5 7.3-2.3 9.9-5 1-.9 1.9-2 2.9-3.3 4.5-6 5.3-9.1 6.6-11.7l-1.8-1.6zm-25.6-5.7c-1.1 0-1.9-.9-1.9-1.9 0-1.1.9-1.9 1.9-1.9 1.1 0 1.9.9 1.9 1.9 0 1.1-.9 1.9-1.9 1.9zM212 64.4h-12.9v-1.9l2.4-.8-4.5-6.9-5.4 6.8 2.7.9v1.9h-9.7v-1.9l2.3-.9 8-9.9-7.4-12.4-2.3-.8v-1.8h13.2v1.8l-2.6.8 4.1 6.2 4.9-6.3-2.3-.7v-1.8h9.1v1.8l-2.8.8-7.2 9.5 8.2 12.9 2.2.8v1.9M122 64.4h-14.8v-1.9l3.7-1.3V40.4h-4.1v-1.9l9-2.4h2.5v25.1l3.7 1.3v1.9M100.6 64.5H83.1v-2.1l4.7-1.1V45.8H69.4v15.5l4.7 1.1v2.1H56.5v-2.1l4.8-1.1V27.1l-4.8-1.2V24h17.6v1.9l-4.7 1.2v15.1h18.4V27.1l-4.7-1.2V24h17.5v1.9l-4.7 1.2v34.2l4.7 1.1v2.1"/>
    <path d="M148.3 51.5c-1.3-1.4-3.3-2.6-6.4-3.8-3.3-1.3-5.2-2.1-6.3-2.9-1.1-.8-1.3-1.5-1.3-2.7 0-1 .5-1.9 1.2-2.5.8-.6 1.9-.9 3.3-.9 1.6 0 2.6.3 3.8 1l1.8 4.5.2.4h3.2l.5-2.9.5-3.1v-.4c-1.2-.3-2.6-.5-4-.8C122 30.1 111.7 8.1 106.4 0l-4.6 6.8c2.8 10.9 16.7 23.1 34.2 29.6-1.8.4-3.4 1-4.6 2-1.8 1.5-2.8 3.6-2.8 6.1 0 2.1.6 3.8 1.9 5.3 1.3 1.4 3.4 2.6 6.5 3.7s5 2 6.2 2.9c1.2.9 1.6 1.8 1.6 3 0 1-.5 1.8-1.3 2.4-.8.6-2.1.9-3.6.9-1.9 0-3.8-.6-5.2-1.4l-2.1-4.6-.2-.3H129v6.2l.5.2.5.2s2.6 1.4 4.4 1.8c1.8.4 3.9.5 5.7.5 3.2 0 5.7-.8 7.4-2.2 1.7-1.5 2.6-3.6 2.6-6.3 0-2.1-.5-3.8-1.8-5.3zM164.8 48.9c0-1 0-1.5.1-2.5H173V45c0-3.6-1.7-6.1-4.2-6.1-3.1 0-5.6 3-6.2 7.5-.1 1-.1 2.1-.1 3.1 0 7.4 3.3 12 8.7 12 2.2 0 8-3.2 8-3.2l1.4 2.6c-5.9 3.3-8 4-12.1 4-8 0-13.3-5.7-13.3-14.2 0-8.7 5.4-14.4 13.7-14.4 6.9 0 11.5 4.3 11.5 10.9v2.3h-15.6v-.6z"/>
  </g>
</svg>