<svg width="298" height="177" viewBox="0 0 298 177" fill="none" xmlns="http://www.w3.org/2000/svg">
<path d="M282.867 66.5C289.386 65.3 295.672 71 298 74V177H0V2C3.72501 14.4 15.5208 24.5 20.9531 28C21.9232 25 25.3766 20.3 31.4297 25.5C37.4828 30.7 54.1289 36.3333 61.6953 38.5C63.8294 33.3333 69.4945 24.5 75.082 30.5C82.0664 38 94.8711 44 96.6172 41C98.3633 38 104.184 28 111.75 34C119.316 40 129.211 46.5 136.195 46.5C143.18 46.5 147.254 39.5 150.746 35.5C154.238 31.5 157.148 39.5 160.059 42.5C162.969 45.5 164.133 46.5 166.461 44C168.789 41.5 169.371 42 171.699 44C174.027 46 178.684 50.5 188.578 56.5C198.473 62.5 199.637 50.5 204.875 46.5C210.113 42.5 219.426 49.5 226.992 54.5C234.559 59.5 235.723 59 240.961 60C246.199 61 249.109 55.5 253.184 54.5C257.258 53.5 260.75 59.5 265.406 66.5C270.062 73.5 274.719 68 282.867 66.5Z" fill="url(#paint0_linear_156_12)"/>
<path d="M296.5 73.5C294.168 70.5 289.62 65.3 283.091 66.5C274.929 68 270.265 73.5 265.601 66.5C260.937 59.5 257.439 53.5 253.358 54.5C249.277 55.5 246.362 61 241.115 60C235.867 59 234.701 59.5 227.122 54.5C219.543 49.5 210.215 42.5 204.968 46.5C199.721 50.5 198.555 62.5 188.644 56.5C178.733 50.5 174.069 46 171.737 44C169.405 42 168.822 41.5 166.49 44C164.158 46.5 162.992 45.5 160.077 42.5C157.162 39.5 154.247 31.5 150.749 35.5C147.251 39.5 143.17 46.5 136.174 46.5C129.178 46.5 119.267 40 111.688 34C104.109 28 98.2785 38 96.5295 41C94.7805 44 81.9544 38 74.9584 30.5C69.3615 24.5 63.687 33.3333 61.5493 38.5C53.9702 36.3333 37.2963 30.7 31.2331 25.5C25.1698 20.3 21.7107 25 20.739 28C15.2976 24.5 4.4149 15 1.49989 2" stroke="#FF727B" stroke-opacity="0.12" stroke-width="3" stroke-linecap="round" stroke-linejoin="round"/>
<defs>
<linearGradient id="paint0_linear_156_12" x1="149" y1="4.5" x2="149" y2="111" gradientUnits="userSpaceOnUse">
<stop stop-color="#FFD4D6"/>
<stop offset="1" stop-color="#FE4752" stop-opacity="0"/>
</linearGradient>
</defs>
</svg>
