<svg width="122" height="27" viewBox="0 0 122 27" fill="none" xmlns="http://www.w3.org/2000/svg">
<path d="M18.5564 21.0043L2.69638 10.0641C1.08916 8.9555 1.63551 6.6472 3.63967 6.10439L20.496 1.52939C20.8531 1.40055 21.2357 1.35873 21.6122 1.40739C21.9887 1.45606 22.3481 1.59381 22.6607 1.80922C22.9732 2.02463 23.23 2.31148 23.4094 2.64597C23.5889 2.98045 23.686 3.35292 23.6928 3.73247L22.6938 19.2468C22.5753 21.0883 20.1636 22.1129 18.5564 21.0043Z" fill="#E9327C"/>
<path d="M13.5261 23.7051L4.18246 5.43257C3.96887 5.01456 3.87489 4.54566 3.91086 4.07761C3.94683 3.60957 4.11137 3.16055 4.38633 2.78007C4.66129 2.3996 5.03598 2.10245 5.46908 1.9214C5.90219 1.74034 6.37689 1.68242 6.84082 1.75402L24.1569 4.42652C24.5555 4.48805 24.9339 4.64334 25.2609 4.8796C25.5878 5.11588 25.854 5.42638 26.0376 5.78558C26.2212 6.14478 26.3169 6.54242 26.3168 6.94581C26.3167 7.3492 26.2209 7.74682 26.0373 8.10596L18.0604 23.706C17.8462 24.1228 17.5212 24.4726 17.1212 24.7167C16.7212 24.9608 16.2616 25.0899 15.793 25.0898C15.3243 25.0897 14.8648 24.9605 14.4649 24.7162C14.0649 24.4719 13.7401 24.122 13.5261 23.7051Z" fill="#1DACE3"/>
<path d="M23.6503 4.34781L15.0184 3.01553L4.42029 5.89314L8.65051 14.1688L18.5564 21.0043C18.7749 21.1535 19.0153 21.2677 19.2689 21.3429L23.0315 13.9849L23.6503 4.34781Z" fill="#001A49"/>
<path d="M67.3732 6.48369C67.3732 6.16284 67.4683 5.84921 67.6465 5.58242C67.8249 5.31565 68.0782 5.10772 68.3746 4.98493C68.6711 4.86216 68.9972 4.83003 69.3119 4.89262C69.6266 4.95522 69.9156 5.10973 70.1425 5.33659C70.3694 5.56347 70.5239 5.85253 70.5865 6.16721C70.6491 6.4819 70.617 6.80808 70.4942 7.1045C70.3714 7.40093 70.1634 7.65429 69.8967 7.83254C69.6299 8.0108 69.3163 8.10594 68.9954 8.10594C68.5665 8.10157 68.1565 7.92925 67.8531 7.62597C67.5499 7.32267 67.3775 6.91258 67.3732 6.48369ZM67.6437 8.89892H70.348V17.911H67.6437V8.89892Z" fill="#001A49"/>
<path d="M82.0263 13.405C82.0578 14.0007 81.9711 14.5967 81.7714 15.1588C81.5716 15.7208 81.2627 16.2378 80.8625 16.6801C80.4622 17.1223 79.9784 17.4811 79.439 17.7358C78.8995 17.9904 78.3151 18.1359 77.7192 18.1639C77.218 18.1911 76.717 18.1066 76.2525 17.9164C75.788 17.7262 75.3716 17.435 75.0334 17.0641V21.5162H72.33V8.89893H75.0334V9.74586C75.3717 9.37499 75.7881 9.08405 76.2526 8.89398C76.7171 8.70395 77.2181 8.61956 77.7192 8.64695C78.3151 8.67479 78.8994 8.82017 79.4389 9.07468C79.9783 9.32929 80.4621 9.68795 80.8624 10.1302C81.2627 10.5724 81.5716 11.0893 81.7714 11.6514C81.9711 12.2134 82.0578 12.8093 82.0263 13.405ZM79.3229 13.405C79.3123 12.983 79.1775 12.5736 78.9353 12.2278C78.6932 11.8822 78.3544 11.6155 77.9615 11.4615C77.5686 11.3073 77.1389 11.2725 76.7263 11.3614C76.3137 11.4502 75.9364 11.6588 75.6418 11.961C75.3471 12.2631 75.1481 12.6456 75.0697 13.0603C74.9913 13.475 75.037 13.9037 75.201 14.2926C75.365 14.6815 75.64 15.0133 75.9917 15.2467C76.3434 15.4801 76.7561 15.6045 77.1782 15.6045C77.468 15.6176 77.7573 15.5691 78.0271 15.4625C78.2969 15.3558 78.5411 15.1932 78.7436 14.9856C78.9462 14.7778 79.1025 14.5297 79.2024 14.2572C79.3022 13.9848 79.3433 13.6943 79.3229 13.405Z" fill="#001A49"/>
<path d="M90.3711 15.2058C90.3711 17.2789 88.5685 18.1621 86.6219 18.1621C85.8355 18.2333 85.0458 18.0668 84.355 17.6843C83.6642 17.3018 83.1041 16.7208 82.747 16.0165L85.0898 14.6833C85.1851 15.0089 85.3891 15.2919 85.6681 15.485C85.9469 15.6781 86.2836 15.7696 86.6219 15.7442C87.2708 15.7442 87.5943 15.5453 87.5943 15.1855C87.5943 14.1936 83.1608 14.7169 83.1608 11.598C83.1608 9.63358 84.8184 8.64255 86.697 8.64255C87.4017 8.62043 88.0993 8.78763 88.717 9.12675C89.3358 9.46587 89.8512 9.96448 90.2111 10.5707L87.9046 11.8146C87.8038 11.578 87.6354 11.3763 87.4207 11.2349C87.2059 11.0933 86.9542 11.0183 86.697 11.0189C86.2285 11.0189 85.9403 11.1957 85.9403 11.5237C85.9376 12.558 90.3711 11.8729 90.3711 15.2058Z" fill="#001A49"/>
<path d="M100.252 8.89893V17.911H97.5488V17.0623C97.2367 17.4362 96.8397 17.7308 96.3915 17.922C95.9442 18.1131 95.4571 18.1954 94.9708 18.1621C93.1506 18.1621 91.6008 16.8643 91.6008 14.4305V8.89893H94.3043V14.0362C94.2813 14.251 94.306 14.4682 94.3759 14.6726C94.4457 14.877 94.5589 15.0638 94.7083 15.2199C94.8577 15.3761 95.0389 15.4977 95.2396 15.5765C95.4412 15.6553 95.6569 15.6893 95.8726 15.6761C96.8636 15.6761 97.5523 15.0997 97.5523 13.8196V8.89893H100.252Z" fill="#001A49"/>
<path d="M115.748 12.3768V17.911H113.044V12.612C113.044 11.7111 112.611 11.1338 111.747 11.1338C110.845 11.1338 110.341 11.765 110.341 12.8286V17.911H107.637V12.612C107.637 11.7111 107.204 11.1338 106.339 11.1338C105.438 11.1338 104.933 11.765 104.933 12.8286V17.911H102.23V8.89893H104.938V9.72464C105.218 9.35696 105.586 9.0654 106.007 8.87648C106.429 8.68764 106.892 8.60751 107.353 8.64345C107.815 8.62083 108.277 8.71846 108.69 8.92687C109.104 9.13524 109.457 9.44723 109.714 9.8325C110.014 9.42946 110.411 9.1089 110.868 8.90097C111.325 8.69299 111.828 8.6044 112.328 8.64345C114.397 8.64699 115.748 10.1242 115.748 12.3768Z" fill="#001A49"/>
<path d="M118.039 8.84324C119.147 8.84324 120.045 7.94477 120.045 6.83643C120.045 5.72811 119.147 4.82962 118.039 4.82962C116.93 4.82962 116.032 5.72811 116.032 6.83643C116.032 7.94477 116.93 8.84324 118.039 8.84324Z" fill="#001A49"/>
<path d="M30.462 4.75354H33.1663V17.911H30.462V4.75354ZM34.6975 13.405C34.6946 12.4601 34.972 11.5356 35.4948 10.7486C36.0175 9.96157 36.762 9.34733 37.6341 8.98371C38.5062 8.62008 39.4665 8.52339 40.3936 8.7059C41.3206 8.88841 42.1727 9.34185 42.8418 10.009C43.5109 10.676 43.9671 11.5265 44.1525 12.453C44.3379 13.3795 44.2443 14.3401 43.8834 15.2133C43.5225 16.0865 42.9107 16.833 42.1253 17.3582C41.3399 17.8834 40.4163 18.1639 39.4714 18.1639C38.8439 18.1705 38.2214 18.0521 37.6401 17.8155C37.0589 17.579 36.5306 17.2289 36.0862 16.7859C35.6417 16.3428 35.29 15.8156 35.0516 15.2352C34.8131 14.6547 34.6928 14.0325 34.6975 13.405ZM41.5472 13.405C41.5366 12.9973 41.4061 12.602 41.1719 12.2683C40.9378 11.9345 40.6104 11.6772 40.2308 11.5285C39.8511 11.3799 39.4361 11.3464 39.0376 11.4324C38.6391 11.5183 38.2748 11.72 37.9902 12.0119C37.7056 12.3039 37.5135 12.6732 37.4377 13.0738C37.3621 13.4745 37.4061 13.8885 37.5645 14.2642C37.7228 14.6398 37.9885 14.9605 38.3282 15.186C38.6678 15.4115 39.0664 15.5318 39.4741 15.532C39.7533 15.54 40.0311 15.4899 40.29 15.3852C40.5489 15.2805 40.7833 15.1232 40.9784 14.9233C41.1735 14.7236 41.3251 14.4855 41.4236 14.2241C41.5221 13.9627 41.5654 13.6838 41.5507 13.405H41.5472ZM55.0282 8.89628V17.4584C55.0282 20.4863 52.6669 21.7655 50.2702 21.7655C49.4266 21.8292 48.5817 21.6593 47.8281 21.2746C47.0747 20.8899 46.4416 20.3051 45.9984 19.5845L48.3049 18.2505C48.4911 18.6266 48.7877 18.9369 49.155 19.14C49.5224 19.3429 49.9428 19.429 50.3604 19.3865C50.6269 19.4229 50.8981 19.399 51.1541 19.3165C51.4102 19.234 51.6444 19.0952 51.8396 18.9101C52.0347 18.7251 52.1858 18.4986 52.2817 18.2472C52.3776 17.996 52.4159 17.7263 52.3937 17.4584V16.6291C52.077 17.0164 51.674 17.324 51.217 17.5274C50.7599 17.7309 50.2616 17.8244 49.7618 17.8005C48.5723 17.7635 47.4438 17.265 46.6155 16.4104C45.7871 15.5559 45.3239 14.4125 45.3239 13.2224C45.3239 12.0322 45.7871 10.8889 46.6155 10.0343C47.4438 9.1798 48.5723 8.68125 49.7618 8.64428C50.2616 8.62038 50.7599 8.71387 51.217 8.91732C51.674 9.12074 52.077 9.4284 52.3937 9.8157V8.89628H55.0282ZM52.3972 13.222C52.4151 12.7867 52.3023 12.356 52.0734 11.9854C51.8445 11.6147 51.51 11.3209 51.1128 11.1419C50.7157 10.9629 50.274 10.9067 49.8447 10.9807C49.4154 11.0547 49.018 11.2554 48.7036 11.557C48.3893 11.8587 48.1723 12.2474 48.0807 12.6732C47.989 13.0992 48.0269 13.5427 48.1894 13.947C48.3518 14.3512 48.6315 14.6976 48.9924 14.9416C49.3532 15.1856 49.7789 15.316 50.2145 15.3163C50.4985 15.3362 50.7836 15.2965 51.0514 15.1997C51.3192 15.1029 51.5637 14.9511 51.7694 14.754C51.9749 14.5571 52.137 14.3192 52.2452 14.0558C52.3533 13.7924 52.4051 13.5092 52.3972 13.2246V13.222ZM56.5594 13.3988C56.5564 12.4539 56.8339 11.5294 57.3566 10.7425C57.8794 9.95538 58.6239 9.34114 59.4959 8.97753C60.3681 8.61389 61.3283 8.51721 62.2554 8.69971C63.1825 8.88222 64.0344 9.33566 64.7037 10.0028C65.3728 10.6698 65.829 11.5203 66.0144 12.4468C66.1997 13.3733 66.1061 14.3339 65.7453 15.2071C65.3844 16.0803 64.7725 16.8268 63.9871 17.352C63.2017 17.8773 62.2782 18.1577 61.3333 18.1577C60.7063 18.1643 60.0843 18.0461 59.5035 17.8099C58.9226 17.5738 58.3946 17.2242 57.9503 16.7818C57.5058 16.3394 57.1541 15.8131 56.9153 15.2332C56.6764 14.6534 56.5555 14.032 56.5594 13.405V13.3988ZM63.409 13.3988C63.3986 12.991 63.2681 12.5953 63.034 12.2612C62.7998 11.9272 62.4723 11.6697 62.0925 11.5208C61.7126 11.3719 61.2974 11.3384 60.8986 11.4244C60.4998 11.5104 60.1352 11.7121 59.8505 12.0042C59.5658 12.2964 59.3735 12.666 59.2978 13.0668C59.2221 13.4677 59.2663 13.882 59.4248 14.2578C59.5834 14.6337 59.8492 14.9545 60.1891 15.1801C60.5291 15.4056 60.928 15.5258 61.3359 15.5258C61.6143 15.5332 61.8911 15.483 62.1492 15.3785C62.4072 15.2739 62.6409 15.117 62.8356 14.918C63.0301 14.7189 63.1816 14.4817 63.2802 14.2213C63.379 13.961 63.4228 13.683 63.409 13.405V13.3988Z" fill="#001A49"/>
</svg>
