<svg width="298" height="146" viewBox="0 0 298 146" fill="none" xmlns="http://www.w3.org/2000/svg">
<path d="M15.1328 66.5C8.61406 65.3 2.32812 71 0 74V177H298V2C294.275 14.4 282.479 24.5 277.047 28C276.077 25 272.623 20.3 266.57 25.5C260.517 30.7 243.871 36.3333 236.305 38.5C234.171 33.3333 228.505 24.5 222.918 30.5C215.934 38 203.129 44 201.383 41C199.637 38 193.816 28 186.25 34C178.684 40 168.789 46.5 161.805 46.5C154.82 46.5 150.746 39.5 147.254 35.5C143.762 31.5 140.852 39.5 137.941 42.5C135.031 45.5 133.867 46.5 131.539 44C129.211 41.5 128.629 42 126.301 44C123.973 46 119.316 50.5 109.422 56.5C99.5273 62.5 98.3633 50.5 93.125 46.5C87.8867 42.5 78.5742 49.5 71.0078 54.5C63.4414 59.5 62.2773 59 57.0391 60C51.8008 61 48.8906 55.5 44.8164 54.5C40.7422 53.5 37.25 59.5 32.5938 66.5C27.9375 73.5 23.2812 68 15.1328 66.5Z" fill="url(#paint0_linear_113_1281)"/>
<path d="M1.5 73.5C3.83202 70.5 8.37945 65.3 14.9091 66.5C23.0711 68 27.7352 73.5 32.3992 66.5C37.0632 59.5 40.5613 53.5 44.6423 54.5C48.7233 55.5 51.6383 61 56.8854 60C62.1324 59 63.2984 59.5 70.8775 54.5C78.4565 49.5 87.7846 42.5 93.0316 46.5C98.2787 50.5 99.4447 62.5 109.356 56.5C119.267 50.5 123.931 46 126.263 44C128.595 42 129.178 41.5 131.51 44C133.842 46.5 135.008 45.5 137.923 42.5C140.838 39.5 143.753 31.5 147.251 35.5C150.749 39.5 154.83 46.5 161.826 46.5C168.822 46.5 178.733 40 186.312 34C193.891 28 199.721 38 201.47 41C203.219 44 216.045 38 223.041 30.5C228.638 24.5 234.313 33.3333 236.451 38.5C244.03 36.3333 260.704 30.7 266.767 25.5C272.83 20.3 276.289 25 277.261 28C282.702 24.5 293.585 15 296.5 2" stroke="#7090B0" stroke-opacity="0.12" stroke-width="3" stroke-linecap="round" stroke-linejoin="round"/>
<defs>
<linearGradient id="paint0_linear_113_1281" x1="149" y1="4.5" x2="149" y2="111" gradientUnits="userSpaceOnUse">
<stop stop-color="#22C55E" stop-opacity="0.43"/>
<stop offset="1" stop-color="#22C55E" stop-opacity="0"/>
</linearGradient>
</defs>
</svg>
