<svg width="214" height="47" viewBox="0 0 214 47" fill="none" xmlns="http://www.w3.org/2000/svg">
<path d="M32.5497 36.8437L4.72974 17.6535C1.91052 15.7089 2.86887 11.6599 6.38436 10.7077L35.952 2.68273C36.5784 2.45672 37.2495 2.38336 37.91 2.46873C38.5703 2.55409 39.2008 2.79573 39.7491 3.17358C40.2973 3.55143 40.7476 4.05459 41.0624 4.64131C41.3772 5.22803 41.5476 5.88138 41.5594 6.54714L39.8071 33.7609C39.5993 36.991 35.3689 38.7883 32.5497 36.8437Z" fill="#E9327C"/>
<path d="M23.7261 41.5811L7.33649 9.52927C6.96183 8.79603 6.79697 7.97354 6.86007 7.15254C6.92317 6.33154 7.21179 5.54391 7.69408 4.87653C8.17639 4.20914 8.83363 3.68791 9.59335 3.37032C10.3531 3.05273 11.1857 2.95113 11.9995 3.07672L42.3736 7.76455C43.0728 7.87249 43.7365 8.14488 44.3101 8.55931C44.8836 8.97375 45.3505 9.5184 45.6726 10.1485C45.9945 10.7786 46.1625 11.4761 46.1623 12.1836C46.1622 12.8912 45.9941 13.5887 45.672 14.2187L31.6798 41.5827C31.3041 42.3138 30.734 42.9273 30.0323 43.3555C29.3306 43.7838 28.5245 44.0102 27.7025 44.01C26.8805 44.0099 26.0744 43.7832 25.3728 43.3547C24.6713 42.9261 24.1016 42.3124 23.7261 41.5811Z" fill="#1DACE3"/>
<path d="M41.485 7.62646L26.3438 5.28952L7.75366 10.3371L15.1739 24.8535L32.5498 36.8437C32.9331 37.1053 33.3547 37.3056 33.7996 37.4376L40.3995 24.5309L41.485 7.62646Z" fill="#001A49"/>
<path d="M118.179 11.3731C118.179 10.8103 118.346 10.2601 118.659 9.79216C118.971 9.32421 119.416 8.95948 119.936 8.7441C120.456 8.52873 121.028 8.47238 121.58 8.58217C122.132 8.69198 122.639 8.963 123.037 9.36095C123.435 9.75891 123.706 10.266 123.816 10.8179C123.925 11.3699 123.869 11.9421 123.654 12.462C123.438 12.982 123.073 13.4264 122.606 13.7391C122.138 14.0518 121.587 14.2187 121.025 14.2187C120.272 14.211 119.553 13.9087 119.021 13.3767C118.489 12.8447 118.187 12.1254 118.179 11.3731ZM118.654 15.6096H123.397V31.4177H118.654V15.6096Z" fill="white"/>
<path d="M143.883 23.5137C143.938 24.5585 143.786 25.604 143.435 26.59C143.085 27.5758 142.543 28.4828 141.841 29.2586C141.139 30.0343 140.29 30.6636 139.344 31.1104C138.398 31.557 137.373 31.8122 136.327 31.8612C135.448 31.909 134.57 31.7607 133.755 31.4272C132.94 31.0935 132.21 30.5828 131.616 29.9321V37.7416H126.874V15.6096H131.616V17.0952C132.21 16.4447 132.94 15.9343 133.755 15.6009C134.57 15.2676 135.449 15.1195 136.327 15.1676C137.373 15.2164 138.398 15.4714 139.344 15.9179C140.29 16.3645 141.139 16.9936 141.841 17.7693C142.543 18.545 143.085 19.4517 143.435 20.4376C143.786 21.4234 143.938 22.4688 143.883 23.5137ZM139.14 23.5137C139.122 22.7735 138.885 22.0554 138.461 21.4489C138.036 20.8425 137.442 20.3748 136.753 20.1045C136.063 19.8341 135.31 19.7731 134.586 19.929C133.862 20.0848 133.2 20.4507 132.683 20.9807C132.167 21.5107 131.818 22.1816 131.68 22.909C131.542 23.6365 131.623 24.3884 131.91 25.0706C132.198 25.7528 132.68 26.3349 133.297 26.7443C133.914 27.1537 134.638 27.3719 135.378 27.3719C135.887 27.3948 136.394 27.3098 136.868 27.1228C137.341 26.9356 137.769 26.6505 138.124 26.2862C138.48 25.9218 138.754 25.4865 138.929 25.0086C139.104 24.5308 139.176 24.0212 139.14 23.5137Z" fill="white"/>
<path d="M158.52 26.6724C158.52 30.3089 155.358 31.8581 151.943 31.8581C150.564 31.9829 149.179 31.6909 147.967 31.0199C146.755 30.3491 145.773 29.3299 145.146 28.0945L149.256 25.756C149.423 26.3271 149.781 26.8235 150.27 27.1622C150.759 27.5008 151.35 27.6613 151.943 27.6168C153.081 27.6168 153.649 27.2679 153.649 26.6368C153.649 24.8969 145.872 25.8149 145.872 20.3439C145.872 16.8982 148.78 15.1599 152.075 15.1599C153.311 15.1211 154.535 15.4144 155.618 16.0092C156.704 16.6041 157.608 17.4787 158.239 18.542L154.193 20.7239C154.016 20.3089 153.721 19.9552 153.344 19.7071C152.968 19.4588 152.526 19.3271 152.075 19.3282C151.253 19.3282 150.748 19.6384 150.748 20.2137C150.743 22.028 158.52 20.8262 158.52 26.6724Z" fill="white"/>
<path d="M175.852 15.6096V31.4177H171.11V29.929C170.563 30.5848 169.866 31.1015 169.08 31.4369C168.295 31.7722 167.441 31.9166 166.588 31.8581C163.395 31.8581 160.677 29.5816 160.677 25.3125V15.6096H165.419V24.6209C165.378 24.9977 165.422 25.3787 165.544 25.7372C165.667 26.0957 165.865 26.4234 166.127 26.6973C166.39 26.9711 166.707 27.1845 167.059 27.3227C167.413 27.461 167.791 27.5206 168.17 27.4974C169.908 27.4974 171.116 26.4864 171.116 24.2409V15.6096H175.852Z" fill="white"/>
<path d="M203.033 21.7101V31.4177H198.291V22.1226C198.291 20.5424 197.531 19.5298 196.015 19.5298C194.433 19.5298 193.549 20.637 193.549 22.5025V31.4177H188.805V22.1226C188.805 20.5424 188.047 19.5298 186.529 19.5298C184.949 19.5298 184.063 20.637 184.063 22.5025V31.4177H179.321V15.6096H184.071V17.058C184.563 16.413 185.208 15.9016 185.948 15.5702C186.687 15.2389 187.5 15.0984 188.308 15.1614C189.119 15.1217 189.928 15.293 190.654 15.6586C191.38 16.0241 191.998 16.5713 192.45 17.2471C192.975 16.5402 193.672 15.9779 194.473 15.6131C195.275 15.2483 196.157 15.0929 197.035 15.1614C200.664 15.1676 203.033 17.7589 203.033 21.7101Z" fill="white"/>
<path d="M207.051 15.5119C208.996 15.5119 210.571 13.9359 210.571 11.9918C210.571 10.0477 208.996 8.47162 207.051 8.47162C205.107 8.47162 203.531 10.0477 203.531 11.9918C203.531 13.9359 205.107 15.5119 207.051 15.5119Z" fill="white"/>
<path d="M53.4332 8.33817H58.1769V31.4177H53.4332V8.33817ZM60.8628 23.5136C60.8576 21.8562 61.3443 20.2346 62.2612 18.8542C63.1782 17.4736 64.4842 16.3961 66.0138 15.7583C67.5436 15.1205 69.228 14.9509 70.8543 15.271C72.4803 15.5911 73.9749 16.3865 75.1487 17.5567C76.3224 18.7267 77.1226 20.2186 77.4478 21.8438C77.773 23.469 77.6088 25.154 76.9757 26.6856C76.3427 28.2173 75.2695 29.5267 73.8918 30.448C72.5141 31.3693 70.8941 31.8612 69.2367 31.8612C68.136 31.8728 67.044 31.6652 66.0244 31.2502C65.0049 30.8352 64.0782 30.2211 63.2986 29.4441C62.5189 28.6668 61.9021 27.7421 61.4838 26.7239C61.0656 25.7057 60.8545 24.6143 60.8628 23.5136ZM72.8778 23.5136C72.8592 22.7986 72.6303 22.1051 72.2195 21.5197C71.8089 20.9343 71.2346 20.4829 70.5688 20.2221C69.9027 19.9614 69.1748 19.9026 68.4757 20.0535C67.7767 20.2042 67.1376 20.5579 66.6384 21.07C66.1393 21.5822 65.8023 22.2301 65.6694 22.9327C65.5367 23.6355 65.6139 24.3617 65.8918 25.0208C66.1695 25.6797 66.6355 26.2421 67.2313 26.6377C67.8271 27.0333 68.5263 27.2444 69.2413 27.2447C69.7311 27.2586 70.2185 27.1709 70.6725 26.9871C71.1267 26.8035 71.5378 26.5276 71.8801 26.177C72.2223 25.8265 72.4883 25.4089 72.661 24.9505C72.8338 24.492 72.9097 24.0027 72.884 23.5136H72.8778ZM96.5248 15.6049V30.6237C96.5248 35.9349 92.3828 38.1788 88.1788 38.1788C86.6991 38.2905 85.2171 37.9926 83.8953 37.3177C82.5736 36.643 81.4631 35.6172 80.6857 34.3532L84.7316 32.0131C85.0581 32.6728 85.5784 33.2171 86.2227 33.5733C86.8671 33.9294 87.6046 34.0803 88.337 34.0058C88.8045 34.0696 89.2803 34.0277 89.7294 33.883C90.1785 33.7383 90.5893 33.4949 90.9317 33.1701C91.2739 32.8456 91.5389 32.4483 91.7072 32.0074C91.8755 31.5667 91.9426 31.0937 91.9037 30.6237V29.1691C91.3482 29.8483 90.6412 30.388 89.8396 30.7448C89.0379 31.1016 88.1638 31.2657 87.2872 31.2238C85.2006 31.1588 83.2211 30.2844 81.7681 28.7855C80.3151 27.2865 79.5025 25.281 79.5025 23.1934C79.5025 21.1057 80.3151 19.1001 81.7681 17.6012C83.2211 16.1023 85.2006 15.2278 87.2872 15.1629C88.1638 15.121 89.0379 15.285 89.8396 15.6418C90.6412 15.9987 91.3482 16.5383 91.9037 17.2177V15.6049H96.5248ZM91.9099 23.1926C91.9412 22.429 91.7433 21.6737 91.3418 21.0235C90.9404 20.3733 90.3536 19.8579 89.6568 19.5439C88.9602 19.2299 88.1855 19.1314 87.4325 19.2612C86.6794 19.391 85.9824 19.743 85.4309 20.2721C84.8795 20.8013 84.4989 21.4831 84.3383 22.2301C84.1775 22.9772 84.2439 23.7552 84.5289 24.4644C84.8137 25.1734 85.3044 25.7809 85.9374 26.2089C86.5704 26.6369 87.3171 26.8658 88.0811 26.8663C88.5794 26.9012 89.0795 26.8316 89.5492 26.6618C90.0189 26.4919 90.4478 26.2257 90.8085 25.88C91.1691 25.5345 91.4535 25.1172 91.6432 24.6553C91.8328 24.1932 91.9237 23.6965 91.9099 23.1973V23.1926ZM99.2107 23.5028C99.2056 21.8454 99.6922 20.2238 100.609 18.8433C101.526 17.4627 102.832 16.3853 104.362 15.7474C105.892 15.1096 107.576 14.94 109.202 15.2601C110.828 15.5803 112.323 16.3756 113.497 17.5458C114.67 18.7158 115.471 20.2078 115.796 21.833C116.121 23.4581 115.957 25.1431 115.324 26.6748C114.691 28.2064 113.617 29.5159 112.24 30.4371C110.862 31.3584 109.242 31.8503 107.585 31.8503C106.485 31.8619 105.394 31.6546 104.375 31.2403C103.356 30.8261 102.43 30.2129 101.65 29.4369C100.871 28.6609 100.254 27.7376 99.835 26.7205C99.416 25.7036 99.2039 24.6134 99.2107 23.5136V23.5028ZM111.226 23.5028C111.207 22.7874 110.979 22.0933 110.568 21.5073C110.157 20.9214 109.583 20.4697 108.916 20.2086C108.25 19.9474 107.522 19.8887 106.822 20.0395C106.123 20.1903 105.483 20.5441 104.984 21.0565C104.484 21.569 104.147 22.2174 104.014 22.9205C103.881 23.6236 103.959 24.3504 104.237 25.0096C104.515 25.669 104.981 26.2316 105.578 26.6273C106.174 27.0229 106.874 27.2338 107.589 27.2338C108.078 27.2467 108.563 27.1588 109.016 26.9753C109.468 26.7919 109.878 26.5168 110.22 26.1675C110.561 25.8183 110.827 25.4023 111 24.9456C111.173 24.4889 111.25 24.0013 111.226 23.5136V23.5028Z" fill="white"/>
</svg>
