<svg width="40" height="39" viewBox="0 0 40 39" fill="none" xmlns="http://www.w3.org/2000/svg">
<path d="M0.195312 15.7109C0.078125 16.6484 0 17.6016 0 18.5703C0 27.0859 4.66406 34.5 11.5703 38.4297L12.8594 35.7109V17.1406L11.4297 15.7109H0.195312ZM40 17.1406C40 15.7109 38.5703 14.2812 37.1406 14.2812H25.7109C26.4219 11.4219 27.1406 8.57031 27.1406 7.14062C27.1406 4.28125 25.7109 1.42969 25 0.710937C24.9844 0.695312 24.2891 0 22.8594 0C20.7188 0 20.7188 2.14062 20.7188 2.14062C20.7188 2.17969 20.0078 5.71093 20.0078 7.14062C20.0078 8.57031 17.1484 14.2812 15.7187 15.7109L14.2891 16.4219V36.4219L15.7187 37.1328H31.4297C34.2891 37.1328 35.7188 35.7031 35.7188 34.2734C35.7188 32.8437 34.2891 31.414 32.8594 31.414C35.7188 31.414 37.1484 29.9844 37.1484 28.5547C37.1484 27.125 35.7187 25.6953 34.2891 25.6953C37.1484 25.6953 38.5781 24.2656 38.5781 22.8359C38.5781 21.4062 37.1484 19.9766 35.7188 19.9766C38.5703 20 40 18.5703 40 17.1406V17.1406Z" fill="#1F8B24"/>
</svg>
