<svg width="70" height="68" viewBox="0 0 70 68" fill="none" xmlns="http://www.w3.org/2000/svg">
<path d="M0.341797 27.4941C0.136719 29.1347 0 30.8027 0 32.498C0 47.4004 8.16211 60.375 20.248 67.2519L22.5039 62.4941V29.9961L20.002 27.4941H0.341797ZM70 29.9961C70 27.4941 67.498 24.9922 64.9961 24.9922H44.9941C46.2383 19.9883 47.4961 14.998 47.4961 12.4961C47.4961 7.49218 44.9941 2.50195 43.75 1.24414C43.7227 1.2168 42.5059 0 40.0039 0C36.2578 0 36.2578 3.74609 36.2578 3.74609C36.2578 3.81445 35.0137 9.99413 35.0137 12.4961C35.0137 14.998 30.0098 24.9922 27.5078 27.4941L25.0059 28.7383V63.7382L27.5078 64.9824H55.002C60.0059 64.9824 62.5078 62.4804 62.5078 59.9785C62.5078 57.4765 60.0059 54.9746 57.5039 54.9746C62.5078 54.9746 65.0098 52.4726 65.0098 49.9707C65.0098 47.4687 62.5078 44.9668 60.0059 44.9668C65.0098 44.9668 67.5117 42.4648 67.5117 39.9629C67.5117 37.4609 65.0098 34.959 62.5078 34.959C67.498 35 70 32.498 70 29.9961V29.9961Z" fill="#1F8B24"/>
</svg>
